<?xml version="1.0" standalone="no"?>
<!DOCTYPE svg PUBLIC "-//W3C//DTD SVG 20010904//EN"
 "http://www.w3.org/TR/2001/REC-SVG-20010904/DTD/svg10.dtd">
<svg version="1.0" xmlns="http://www.w3.org/2000/svg"
 width="676.000000pt" height="369.000000pt" viewBox="0 0 676.000000 369.000000"
 preserveAspectRatio="xMidYMid meet">

<g transform="translate(0.000000,369.000000) scale(0.100000,-0.100000)"
fill="#000000" stroke="none">
<path d="M3160 2647 c-258 -91 -445 -315 -505 -602 -14 -65 -15 -111 -10 -250
4 -93 13 -200 20 -237 30 -148 182 -378 249 -378 9 0 19 12 22 27 11 44 13 45
61 11 140 -96 320 -150 508 -151 100 -1 132 3 189 21 131 44 255 119 239 145
-3 6 -1 7 5 3 6 -3 15 2 21 11 6 10 11 14 11 9 0 -24 135 139 177 214 37 67
68 164 57 181 -4 7 -3 9 3 6 7 -4 11 2 11 16 0 12 3 69 7 127 l8 106 -27 12
c-15 6 -36 12 -47 12 -13 0 -18 4 -13 12 5 7 3 8 -5 4 -7 -5 -18 0 -27 10 -14
18 -14 18 -7 0 4 -13 3 -17 -5 -12 -13 8 -35 -27 -24 -39 4 -5 2 -6 -3 -2 -6
3 -31 -19 -55 -49 -25 -30 -70 -71 -100 -91 -30 -20 -80 -53 -110 -74 -87 -58
-280 -157 -361 -184 -96 -33 -221 -65 -253 -65 -19 0 -26 -5 -26 -19 0 -11 8
-21 18 -23 14 -3 13 -5 -6 -10 -12 -3 -20 -2 -17 2 3 5 0 10 -6 12 -42 14 -49
389 -10 583 26 133 86 288 129 338 14 16 14 19 2 28 -32 20 -90 31 -195 38
-94 6 -104 8 -71 15 55 12 184 0 250 -23 59 -20 123 -58 304 -176 143 -94 283
-233 334 -333 l37 -72 50 58 c92 102 141 241 127 351 -19 139 -157 291 -355
391 -35 17 -78 33 -95 35 -17 2 -73 10 -124 20 -92 16 -275 18 -265 3 2 -5 -8
-3 -22 2 -32 12 -18 14 -95 -13z m215 -22 c0 -5 -15 -11 -32 -13 -25 -3 -33 1
-33 13 0 12 8 16 33 13 17 -2 32 -7 32 -13z m193 -6 c4 -24 -24 -48 -48 -42
-20 5 -28 42 -13 57 13 13 58 1 61 -15z m112 -34 c14 -17 4 -55 -15 -55 -28 0
-45 13 -45 34 0 13 3 26 7 29 11 12 40 8 53 -8z m119 -59 c9 -10 7 -19 -8 -37
l-20 -24 -22 22 c-19 18 -20 24 -9 37 15 20 44 21 59 2z m101 -71 c26 -31 -18
-71 -47 -42 -19 19 -8 57 16 57 10 0 24 -7 31 -15z m-473 -55 c5 -27 -13 -43
-41 -36 -25 6 -35 33 -19 50 12 12 58 2 60 -14z m567 -42 c16 -27 -14 -54 -43
-39 -21 11 -28 41 -14 55 12 12 45 2 57 -16z m-470 -1 c21 -15 14 -57 -9 -57
-41 0 -59 32 -33 58 15 15 20 15 42 -1z m-323 -43 c9 -11 10 -20 3 -32 -14
-22 -27 -24 -48 -9 -15 11 -17 17 -7 35 14 26 33 28 52 6z m-284 -20 c3 -8 -1
-22 -9 -31 -13 -12 -20 -13 -37 -4 -17 10 -19 15 -11 31 13 24 48 26 57 4z
m707 -3 c14 -15 15 -24 6 -40 -12 -24 -14 -25 -41 -11 -21 12 -25 40 -7 58 16
16 22 15 42 -7z m430 -37 c3 -8 1 -25 -5 -37 -11 -20 -12 -20 -25 -2 -8 10
-14 24 -14 30 0 27 34 34 44 9z m-320 -46 c8 -14 7 -21 -6 -34 -30 -30 -75 9
-48 42 16 18 39 15 54 -8z m-590 6 c20 -8 21 -38 2 -53 -11 -9 -20 -10 -35 -1
-24 12 -25 15 -11 41 11 20 19 23 44 13z m-294 -33 c0 -24 -23 -43 -44 -35
-16 6 -22 35 -9 47 3 4 17 7 30 7 16 0 23 -6 23 -19z m975 -51 c18 -20 18 -21
-2 -41 l-21 -21 -22 22 c-21 21 -21 23 -4 41 22 24 27 24 49 -1z m-703 -39
c11 -10 -3 -51 -17 -51 -28 0 -45 13 -45 34 0 13 3 26 7 29 7 8 43 0 55 -12z
m-328 -7 c20 -8 21 -38 2 -53 -16 -14 -46 -4 -46 14 0 38 14 50 44 39z m1127
-56 c10 -18 8 -24 -7 -35 -21 -15 -34 -13 -48 9 -7 12 -6 21 3 32 19 22 38 20
52 -6z m-833 -47 c20 -13 11 -56 -13 -59 -35 -4 -51 13 -37 42 12 27 27 32 50
17z m-304 -29 c11 -19 -7 -52 -28 -52 -30 0 -34 6 -28 35 3 18 11 25 28 25 12
0 25 -4 28 -8z m1199 -34 c7 -27 -21 -52 -40 -36 -14 11 -17 40 -6 51 14 15
41 6 46 -15z m-903 -89 c0 -27 -3 -30 -27 -27 -22 2 -29 9 -31 31 -3 24 0 27
27 27 28 0 31 -3 31 -31z m-305 -24 c0 -25 -4 -30 -25 -30 -19 0 -26 6 -28 24
-4 25 13 43 38 38 9 -1 15 -13 15 -32z m300 -100 c0 -25 -4 -30 -25 -30 -21 0
-26 5 -28 33 -3 31 -2 33 25 30 24 -3 28 -8 28 -33z m893 -3 c2 -24 -1 -32
-12 -32 -17 0 -32 42 -21 60 12 20 30 4 33 -28z m-1175 -14 c14 -21 2 -48 -22
-48 -26 0 -41 48 -20 61 17 11 30 7 42 -13z m1097 -23 c17 -20 8 -50 -14 -50
-27 0 -43 29 -27 49 17 20 25 20 41 1z m280 -29 c0 -13 -23 -66 -29 -66 -17 0
-19 14 -5 41 12 24 34 40 34 25z m-1090 -37 c16 -28 5 -49 -24 -49 -29 0 -44
33 -26 55 17 21 37 18 50 -6z m731 -1 c10 -18 8 -24 -7 -35 -24 -17 -48 -13
-52 10 -9 47 37 66 59 25z m-983 -50 c4 -33 -21 -39 -38 -9 -16 30 -12 43 13
39 16 -2 23 -11 25 -30z m869 -8 c10 -15 10 -22 -3 -35 -21 -21 -41 -19 -55 7
-10 18 -8 24 7 35 25 18 37 16 51 -7z m400 -35 c5 -16 -22 -55 -39 -55 -18 0
-20 31 -3 50 22 24 34 25 42 5z m-517 -14 c15 -28 13 -39 -11 -51 -39 -22 -70
37 -31 59 24 15 30 14 42 -8z m-475 -31 c0 -34 -39 -40 -55 -9 -10 17 -9 23 1
30 26 17 54 6 54 -21z m356 -22 c10 -18 8 -24 -7 -35 -24 -17 -48 -13 -52 10
-9 47 37 66 59 25z m-121 -38 c14 -27 5 -40 -29 -40 -21 0 -30 6 -34 22 -8 29
-1 38 28 38 14 0 29 -9 35 -20z m668 -6 c4 -25 -22 -49 -43 -40 -31 12 -9 70
25 64 8 -2 16 -13 18 -24z m-812 -51 c-3 -4 -6 -1 -6 6 0 7 -4 9 -10 6 -6 -4
-7 1 -3 11 6 15 7 15 15 -1 6 -9 7 -19 4 -22z m-53 -3 c7 -26 -7 -34 -33 -20
-25 13 -26 37 -2 43 23 5 29 1 35 -23z m767 -41 c0 -27 -40 -36 -57 -13 -12
17 -11 21 8 37 25 20 49 8 49 -24z m-112 -69 c-4 -19 -48 -26 -59 -8 -15 22
-10 38 14 47 25 10 50 -12 45 -39z m-128 -19 c14 -26 13 -29 -11 -41 -24 -13
-49 2 -49 30 0 32 44 40 60 11z m-130 -15 c0 -2 3 -12 6 -21 6 -13 1 -16 -22
-13 -38 4 -47 38 -10 38 14 0 26 -2 26 -4z"/>
<path d="M4150 2021 c0 -27 4 -31 26 -31 22 0 25 4 22 28 -2 19 -9 28 -25 30
-20 3 -23 -1 -23 -27z"/>
<path d="M3287 1707 c-23 -16 -47 -96 -37 -122 17 -45 78 -64 103 -33 17 21
83 69 88 64 2 -2 4 12 4 32 l0 37 -47 2 c-25 1 -57 9 -70 17 -20 13 -28 14
-41 3z"/>
</g>
</svg>
